<svg width="31.2" height="31.2" viewBox="0 0 26 26" fill="none" xmlns="http://www.w3.org/2000/svg">
<path d="M24 12.5C24 18.2897 19.2897 23 13.5 23C7.71027 23 3 18.2897 3 12.5C3 8.63467 5.09487 5.23012 8.24902 3.40548C8.81514 3.07811 9.53952 3.27143 9.86707 3.8376C10.1946 4.40377 10.0011 5.12816 9.43501 5.45565C6.92667 6.90661 5.36848 9.6059 5.36848 12.5C5.36848 16.9838 9.01628 20.6316 13.5001 20.6316C17.9838 20.6316 21.6316 16.9838 21.6316 12.5C21.6316 9.6059 20.0734 6.90661 17.565 5.45553C16.9989 5.1281 16.8054 4.4036 17.1329 3.83754C17.4605 3.27131 18.1849 3.07787 18.751 3.40548C21.9029 5.22882 24 8.63201 24 12.5ZM12.3158 12.5V3.18421C12.3158 2.53017 12.846 2 13.5 2C14.154 2 14.6842 2.53017 14.6842 3.18421V12.5C14.6842 13.154 14.154 13.6842 13.5 13.6842C12.846 13.6842 12.3158 13.154 12.3158 12.5Z" fill="#ef4444"/>
</svg>
